<?xml version="1.0" encoding="utf-8"?>
<!-- Generator: Adobe Illustrator 19.0.1, SVG Export Plug-In . SVG Version: 6.00 Build 0)  -->
<svg version="1.1" id="Layer_1" xmlns="http://www.w3.org/2000/svg" xmlns:xlink="http://www.w3.org/1999/xlink" x="0px" y="0px"
	 viewBox="0 0 311.6 330" enable-background="new 0 0 311.6 330" xml:space="preserve">
<g>
	<polygon id="XMLID_9_" fill="#3C3C3B" points="298.1,212.5 264.7,212 261.8,234.2 	"/>
	<polygon id="XMLID_8_" fill="#3C3C3B" points="46.9,212 14.9,212.5 49.8,234.2 	"/>
	<polygon id="XMLID_7_" fill="#575756" points="155.8,15 21.2,15 56.8,288.4 155.8,315 155.8,315 155.8,315 	"/>
	<polygon id="XMLID_6_" fill="#868686" points="155.8,15 155.8,315 155.8,315 155.8,315 254.7,288.4 290.4,15 	"/>
	<g id="XMLID_5_">
		<path fill="#575756" d="M280.1,24l-33.5,257.2l-90.8,24.4L65,281.2L31.4,24h124.3H280.1 M290.4,15H155.8H21.2l35.7,273.4
			l98.9,26.6l0,0l0,0l98.9-26.6L290.4,15L290.4,15z"/>
	</g>
	<polygon id="XMLID_4_" fill="#E84E1B" points="298.1,212.5 14.9,212.5 2.6,80.1 308.9,80.1 	"/>
	<g>
		<path fill="#FFFFFF" d="M65.9,107.1c0,1-0.2,1.9-0.5,2.7c1.2,1.3,2.1,3.1,2.1,5.1v8.3c0,4.1-3.4,7.4-7.5,7.4H29.1V92.2h29.4
			c4,0,7.4,3.3,7.4,7.4V107.1z M36.5,99.2c-0.2,0-0.4,0.2-0.4,0.4v7.5c0,0.2,0.2,0.4,0.4,0.4h22c0.2,0,0.3-0.2,0.3-0.4v-7.5
			c0-0.2-0.2-0.4-0.3-0.4H36.5z M60.4,114.9c0-0.2-0.2-0.3-0.4-0.3H36.5c-0.2,0-0.4,0.1-0.4,0.3v8.3c0,0.2,0.2,0.4,0.4,0.4H60
			c0.2,0,0.4-0.2,0.4-0.4V114.9z"/>
		<path fill="#FFFFFF" d="M111.6,110c0,4-3.4,7.4-7.5,7.4H102l9.5,11.3v1.8h-7.7l-11.1-13.2H80.4h-0.2v13.2h-7V92.2h30.9
			c4.1,0,7.5,3.4,7.5,7.4V110z M104.1,110.3c0.2,0,0.4-0.2,0.4-0.4V99.6c0-0.2-0.2-0.4-0.4-0.4H80.6c-0.2,0-0.4,0.2-0.4,0.4V110
			c0,0.2,0.2,0.4,0.4,0.4H104.1z"/>
		<path fill="#FFFFFF" d="M148.1,92.2c4,0,7.4,3.3,7.4,7.4v23.5c0,4.1-3.4,7.4-7.4,7.4h-23.5c-4.1,0-7.4-3.3-7.4-7.4V99.6
			c0-4.1,3.3-7.4,7.4-7.4H148.1z M148.1,123.5c0.2,0,0.3-0.2,0.3-0.4V99.6c0-0.2-0.2-0.4-0.3-0.4h-23.5c-0.2,0-0.4,0.2-0.4,0.4v23.5
			c0,0.2,0.2,0.4,0.4,0.4H148.1z"/>
		<path fill="#FFFFFF" d="M198.4,92.2V94l-14.5,17.3l14.5,17.3v1.9h-7.7l-13.1-15.7h-9.1v15.7h-7.1V92.2h7.1v15.7h9.1
			c4.3-5.1,8.9-10.5,13.1-15.7H198.4z"/>
		<path fill="#FFFFFF" d="M239.2,99.2H211v8.6h22.7v7H211v8.6h28.2v7h-35.3V92.2h35.3V99.2z"/>
		<path fill="#FFFFFF" d="M282.9,110c0,4-3.4,7.4-7.5,7.4h-2.1l9.5,11.3v1.8h-7.7l-11.1-13.2h-12.4h-0.2v13.2h-7V92.2h30.9
			c4.1,0,7.5,3.4,7.5,7.4V110z M275.4,110.3c0.2,0,0.4-0.2,0.4-0.4V99.6c0-0.2-0.2-0.4-0.4-0.4H252c-0.2,0-0.4,0.2-0.4,0.4V110
			c0,0.2,0.2,0.4,0.4,0.4H275.4z"/>
	</g>
	<g>
		<path fill="#575756" d="M125.1,136.9l-22.8,62.6h-9L77,155.1c-5.3,14.6-11,29.9-16.3,44.4h-9L29,136.9h12.2l15.1,41.3l15.1-41.3
			h11.2l15.1,41.3l15.1-41.3H125.1z"/>
		<path fill="#575756" d="M133.4,136.9h11.5v62.6h-11.5V136.9z"/>
		<path fill="#575756" d="M214.6,153.8H203V149c0-0.3-0.3-0.6-0.5-0.6h-38.4c-0.3,0-0.6,0.3-0.6,0.6v12.9c0,0.3,0.3,0.6,0.6,0.6
			h38.4c6.6,0,12.1,5.4,12.1,12.1v12.9c0,6.7-5.5,12.1-12.1,12.1h-38.4c-6.7,0-12.1-5.4-12.1-12.1v-4.8h11.5v4.8
			c0,0.3,0.3,0.6,0.6,0.6h38.4c0.3,0,0.5-0.3,0.5-0.6v-12.9c0-0.3-0.3-0.6-0.5-0.6h-38.4c-6.7,0-12.1-5.4-12.1-12.1V149
			c0-6.7,5.4-12.1,12.1-12.1h38.4c6.6,0,12.1,5.4,12.1,12.1V153.8z"/>
		<path fill="#575756" d="M281.6,148.4h-46v14.1h37v11.5h-37V188h46v11.5h-57.5v-62.6h57.5V148.4z"/>
	</g>
</g>
<g>
</g>
<g>
</g>
<g>
</g>
<g>
</g>
<g>
</g>
<g>
</g>
<g>
</g>
<g>
</g>
<g>
</g>
<g>
</g>
<g>
</g>
<g>
</g>
<g>
</g>
<g>
</g>
<g>
</g>
</svg>
